<mxfile host="app.diagrams.net" agent="Mozilla/5.0 (X11; Linux x86_64) AppleWebKit/537.36 (KHTML, like Gecko) Chrome/132.0.0.0 YaBrowser/25.2.0.0 Safari/537.36" version="27.1.4">
  <diagram name="Страница — 1" id="8gjStGZNTTVYvLwNC89s">
    <mxGraphModel dx="673" dy="384" grid="1" gridSize="10" guides="1" tooltips="1" connect="1" arrows="1" fold="1" page="1" pageScale="1" pageWidth="827" pageHeight="1169" math="0" shadow="0">
      <root>
        <mxCell id="0" />
        <mxCell id="1" parent="0" />
        <mxCell id="gqBWp9HoKIo5OFpfZnS_-2" value="&lt;font style=&quot;font-size: 20px;&quot;&gt;&lt;b&gt;class 1&lt;/b&gt;&lt;/font&gt;" style="shape=note;size=20;whiteSpace=wrap;html=1;align=left;" vertex="1" parent="1">
          <mxGeometry x="230" y="330" width="110" height="40" as="geometry" />
        </mxCell>
        <mxCell id="gqBWp9HoKIo5OFpfZnS_-19" style="edgeStyle=orthogonalEdgeStyle;rounded=0;orthogonalLoop=1;jettySize=auto;html=1;fillColor=#dae8fc;strokeColor=#6c8ebf;curved=1;strokeWidth=2;entryX=0;entryY=0.5;entryDx=0;entryDy=0;entryPerimeter=0;" edge="1" parent="1" source="gqBWp9HoKIo5OFpfZnS_-3" target="gqBWp9HoKIo5OFpfZnS_-2">
          <mxGeometry relative="1" as="geometry" />
        </mxCell>
        <mxCell id="gqBWp9HoKIo5OFpfZnS_-28" style="edgeStyle=orthogonalEdgeStyle;rounded=0;orthogonalLoop=1;jettySize=auto;html=1;curved=1;fillColor=#ffe6cc;strokeColor=#d79b00;entryX=0;entryY=0.5;entryDx=0;entryDy=0;entryPerimeter=0;exitX=0;exitY=0.5;exitDx=0;exitDy=0;exitPerimeter=0;strokeWidth=2;" edge="1" parent="1" source="gqBWp9HoKIo5OFpfZnS_-3" target="gqBWp9HoKIo5OFpfZnS_-11">
          <mxGeometry relative="1" as="geometry" />
        </mxCell>
        <mxCell id="gqBWp9HoKIo5OFpfZnS_-3" value="&lt;font style=&quot;font-size: 20px;&quot;&gt;&lt;b&gt;lesson 1&lt;/b&gt;&lt;/font&gt;" style="shape=note;size=20;whiteSpace=wrap;html=1;align=left;" vertex="1" parent="1">
          <mxGeometry x="40" y="280" width="110" height="40" as="geometry" />
        </mxCell>
        <mxCell id="gqBWp9HoKIo5OFpfZnS_-23" style="edgeStyle=orthogonalEdgeStyle;rounded=0;orthogonalLoop=1;jettySize=auto;html=1;curved=1;fillColor=#dae8fc;strokeColor=#6c8ebf;entryX=0;entryY=0.5;entryDx=0;entryDy=0;entryPerimeter=0;strokeWidth=2;" edge="1" parent="1" source="gqBWp9HoKIo5OFpfZnS_-4" target="gqBWp9HoKIo5OFpfZnS_-7">
          <mxGeometry relative="1" as="geometry" />
        </mxCell>
        <mxCell id="gqBWp9HoKIo5OFpfZnS_-4" value="&lt;font style=&quot;font-size: 20px;&quot;&gt;&lt;b&gt;lesson 2&lt;/b&gt;&lt;/font&gt;" style="shape=note;size=20;whiteSpace=wrap;html=1;align=left;" vertex="1" parent="1">
          <mxGeometry x="50" y="330" width="110" height="40" as="geometry" />
        </mxCell>
        <mxCell id="gqBWp9HoKIo5OFpfZnS_-5" value="&lt;font style=&quot;font-size: 20px;&quot;&gt;&lt;b&gt;lesson 3&lt;/b&gt;&lt;/font&gt;" style="shape=note;size=20;whiteSpace=wrap;html=1;align=left;" vertex="1" parent="1">
          <mxGeometry x="40" y="380" width="110" height="40" as="geometry" />
        </mxCell>
        <mxCell id="gqBWp9HoKIo5OFpfZnS_-24" style="edgeStyle=orthogonalEdgeStyle;rounded=0;orthogonalLoop=1;jettySize=auto;html=1;curved=1;fillColor=#dae8fc;strokeColor=#6c8ebf;strokeWidth=2;entryX=0;entryY=0.5;entryDx=0;entryDy=0;entryPerimeter=0;" edge="1" parent="1" source="gqBWp9HoKIo5OFpfZnS_-6" target="gqBWp9HoKIo5OFpfZnS_-7">
          <mxGeometry relative="1" as="geometry" />
        </mxCell>
        <mxCell id="gqBWp9HoKIo5OFpfZnS_-6" value="&lt;font style=&quot;font-size: 20px;&quot;&gt;&lt;b&gt;lesson 4&lt;/b&gt;&lt;/font&gt;" style="shape=note;size=20;whiteSpace=wrap;html=1;align=left;" vertex="1" parent="1">
          <mxGeometry x="50" y="430" width="110" height="40" as="geometry" />
        </mxCell>
        <mxCell id="gqBWp9HoKIo5OFpfZnS_-7" value="&lt;font style=&quot;font-size: 20px;&quot;&gt;&lt;b&gt;class 2&lt;/b&gt;&lt;/font&gt;" style="shape=note;size=20;whiteSpace=wrap;html=1;align=left;" vertex="1" parent="1">
          <mxGeometry x="230" y="380" width="110" height="40" as="geometry" />
        </mxCell>
        <mxCell id="gqBWp9HoKIo5OFpfZnS_-27" style="edgeStyle=orthogonalEdgeStyle;rounded=0;orthogonalLoop=1;jettySize=auto;html=1;curved=1;fillColor=#d5e8d4;strokeColor=#82b366;strokeWidth=2;entryX=0;entryY=0;entryDx=110;entryDy=20;entryPerimeter=0;" edge="1" parent="1" source="gqBWp9HoKIo5OFpfZnS_-8" target="gqBWp9HoKIo5OFpfZnS_-2">
          <mxGeometry relative="1" as="geometry" />
        </mxCell>
        <mxCell id="gqBWp9HoKIo5OFpfZnS_-8" value="&lt;font style=&quot;font-size: 20px;&quot;&gt;&lt;b&gt;student 1&lt;/b&gt;&lt;/font&gt;" style="shape=note;size=20;whiteSpace=wrap;html=1;align=left;" vertex="1" parent="1">
          <mxGeometry x="440" y="310" width="110" height="40" as="geometry" />
        </mxCell>
        <mxCell id="gqBWp9HoKIo5OFpfZnS_-25" style="edgeStyle=orthogonalEdgeStyle;rounded=0;orthogonalLoop=1;jettySize=auto;html=1;curved=1;fillColor=#d5e8d4;strokeColor=#82b366;strokeWidth=2;" edge="1" parent="1" source="gqBWp9HoKIo5OFpfZnS_-9" target="gqBWp9HoKIo5OFpfZnS_-7">
          <mxGeometry relative="1" as="geometry" />
        </mxCell>
        <mxCell id="gqBWp9HoKIo5OFpfZnS_-9" value="&lt;font style=&quot;font-size: 20px;&quot;&gt;&lt;b&gt;student 2&lt;/b&gt;&lt;/font&gt;" style="shape=note;size=20;whiteSpace=wrap;html=1;align=left;" vertex="1" parent="1">
          <mxGeometry x="430" y="360" width="110" height="40" as="geometry" />
        </mxCell>
        <mxCell id="gqBWp9HoKIo5OFpfZnS_-26" style="edgeStyle=orthogonalEdgeStyle;rounded=0;orthogonalLoop=1;jettySize=auto;html=1;curved=1;fillColor=#d5e8d4;strokeColor=#82b366;strokeWidth=2;" edge="1" parent="1" source="gqBWp9HoKIo5OFpfZnS_-10" target="gqBWp9HoKIo5OFpfZnS_-7">
          <mxGeometry relative="1" as="geometry" />
        </mxCell>
        <mxCell id="gqBWp9HoKIo5OFpfZnS_-10" value="&lt;font style=&quot;font-size: 20px;&quot;&gt;&lt;b&gt;student 3&lt;/b&gt;&lt;/font&gt;" style="shape=note;size=20;whiteSpace=wrap;html=1;align=left;" vertex="1" parent="1">
          <mxGeometry x="440" y="410" width="110" height="40" as="geometry" />
        </mxCell>
        <mxCell id="gqBWp9HoKIo5OFpfZnS_-11" value="&lt;font style=&quot;font-size: 20px;&quot;&gt;&lt;b&gt;subject 1&lt;/b&gt;&lt;/font&gt;" style="shape=note;size=20;whiteSpace=wrap;html=1;align=left;" vertex="1" parent="1">
          <mxGeometry x="230" y="500" width="110" height="40" as="geometry" />
        </mxCell>
        <mxCell id="gqBWp9HoKIo5OFpfZnS_-12" value="&lt;font style=&quot;font-size: 20px;&quot;&gt;&lt;b&gt;subject 2&lt;/b&gt;&lt;/font&gt;" style="shape=note;size=20;whiteSpace=wrap;html=1;align=left;" vertex="1" parent="1">
          <mxGeometry x="240" y="550" width="110" height="40" as="geometry" />
        </mxCell>
        <mxCell id="gqBWp9HoKIo5OFpfZnS_-13" value="&lt;font style=&quot;font-size: 20px;&quot;&gt;&lt;b&gt;subject 3&lt;/b&gt;&lt;/font&gt;" style="shape=note;size=20;whiteSpace=wrap;html=1;align=left;" vertex="1" parent="1">
          <mxGeometry x="230" y="600" width="110" height="40" as="geometry" />
        </mxCell>
        <mxCell id="gqBWp9HoKIo5OFpfZnS_-14" value="&lt;font style=&quot;font-size: 20px;&quot;&gt;&lt;b&gt;subject 4&lt;/b&gt;&lt;/font&gt;" style="shape=note;size=20;whiteSpace=wrap;html=1;align=left;" vertex="1" parent="1">
          <mxGeometry x="240" y="650" width="110" height="40" as="geometry" />
        </mxCell>
        <mxCell id="gqBWp9HoKIo5OFpfZnS_-32" style="edgeStyle=orthogonalEdgeStyle;rounded=0;orthogonalLoop=1;jettySize=auto;html=1;fillColor=#f8cecc;strokeColor=#b85450;strokeWidth=2;" edge="1" parent="1" source="gqBWp9HoKIo5OFpfZnS_-15" target="gqBWp9HoKIo5OFpfZnS_-11">
          <mxGeometry relative="1" as="geometry" />
        </mxCell>
        <mxCell id="gqBWp9HoKIo5OFpfZnS_-15" value="&lt;font style=&quot;font-size: 20px;&quot;&gt;&lt;b&gt;teacher 1&lt;/b&gt;&lt;/font&gt;" style="shape=note;size=20;whiteSpace=wrap;html=1;align=left;" vertex="1" parent="1">
          <mxGeometry x="430" y="500" width="110" height="40" as="geometry" />
        </mxCell>
        <mxCell id="gqBWp9HoKIo5OFpfZnS_-33" style="edgeStyle=orthogonalEdgeStyle;rounded=0;orthogonalLoop=1;jettySize=auto;html=1;fillColor=#f8cecc;strokeColor=#b85450;strokeWidth=2;" edge="1" parent="1" source="gqBWp9HoKIo5OFpfZnS_-16" target="gqBWp9HoKIo5OFpfZnS_-12">
          <mxGeometry relative="1" as="geometry" />
        </mxCell>
        <mxCell id="gqBWp9HoKIo5OFpfZnS_-16" value="&lt;font style=&quot;font-size: 20px;&quot;&gt;&lt;b&gt;teacher 2&lt;/b&gt;&lt;/font&gt;" style="shape=note;size=20;whiteSpace=wrap;html=1;align=left;" vertex="1" parent="1">
          <mxGeometry x="440" y="550" width="110" height="40" as="geometry" />
        </mxCell>
        <mxCell id="gqBWp9HoKIo5OFpfZnS_-34" style="edgeStyle=orthogonalEdgeStyle;rounded=0;orthogonalLoop=1;jettySize=auto;html=1;fillColor=#f8cecc;strokeColor=#b85450;strokeWidth=2;" edge="1" parent="1" source="gqBWp9HoKIo5OFpfZnS_-17" target="gqBWp9HoKIo5OFpfZnS_-13">
          <mxGeometry relative="1" as="geometry" />
        </mxCell>
        <mxCell id="gqBWp9HoKIo5OFpfZnS_-17" value="&lt;font style=&quot;font-size: 20px;&quot;&gt;&lt;b&gt;teacher 3&lt;/b&gt;&lt;/font&gt;" style="shape=note;size=20;whiteSpace=wrap;html=1;align=left;" vertex="1" parent="1">
          <mxGeometry x="430" y="600" width="110" height="40" as="geometry" />
        </mxCell>
        <mxCell id="gqBWp9HoKIo5OFpfZnS_-35" style="edgeStyle=orthogonalEdgeStyle;rounded=0;orthogonalLoop=1;jettySize=auto;html=1;fillColor=#f8cecc;strokeColor=#b85450;strokeWidth=2;" edge="1" parent="1" source="gqBWp9HoKIo5OFpfZnS_-18" target="gqBWp9HoKIo5OFpfZnS_-14">
          <mxGeometry relative="1" as="geometry" />
        </mxCell>
        <mxCell id="gqBWp9HoKIo5OFpfZnS_-18" value="&lt;font style=&quot;font-size: 20px;&quot;&gt;&lt;b&gt;teacher 4&lt;/b&gt;&lt;/font&gt;" style="shape=note;size=20;whiteSpace=wrap;html=1;align=left;" vertex="1" parent="1">
          <mxGeometry x="440" y="650" width="110" height="40" as="geometry" />
        </mxCell>
        <mxCell id="gqBWp9HoKIo5OFpfZnS_-20" style="edgeStyle=orthogonalEdgeStyle;rounded=0;orthogonalLoop=1;jettySize=auto;html=1;entryX=0;entryY=0.5;entryDx=0;entryDy=0;entryPerimeter=0;fillColor=#dae8fc;strokeColor=#6c8ebf;curved=1;strokeWidth=2;" edge="1" parent="1" source="gqBWp9HoKIo5OFpfZnS_-5" target="gqBWp9HoKIo5OFpfZnS_-2">
          <mxGeometry relative="1" as="geometry" />
        </mxCell>
        <mxCell id="gqBWp9HoKIo5OFpfZnS_-29" style="edgeStyle=orthogonalEdgeStyle;rounded=0;orthogonalLoop=1;jettySize=auto;html=1;entryX=0;entryY=0.5;entryDx=0;entryDy=0;entryPerimeter=0;fillColor=#ffe6cc;strokeColor=#d79b00;curved=1;exitX=0;exitY=0.5;exitDx=0;exitDy=0;exitPerimeter=0;strokeWidth=2;" edge="1" parent="1" source="gqBWp9HoKIo5OFpfZnS_-5" target="gqBWp9HoKIo5OFpfZnS_-13">
          <mxGeometry relative="1" as="geometry" />
        </mxCell>
        <mxCell id="gqBWp9HoKIo5OFpfZnS_-30" style="edgeStyle=orthogonalEdgeStyle;rounded=0;orthogonalLoop=1;jettySize=auto;html=1;entryX=0.006;entryY=0.567;entryDx=0;entryDy=0;entryPerimeter=0;exitX=0;exitY=0.5;exitDx=0;exitDy=0;exitPerimeter=0;curved=1;fillColor=#ffe6cc;strokeColor=#d79b00;strokeWidth=2;" edge="1" parent="1" source="gqBWp9HoKIo5OFpfZnS_-4" target="gqBWp9HoKIo5OFpfZnS_-12">
          <mxGeometry relative="1" as="geometry" />
        </mxCell>
        <mxCell id="gqBWp9HoKIo5OFpfZnS_-31" style="edgeStyle=orthogonalEdgeStyle;rounded=0;orthogonalLoop=1;jettySize=auto;html=1;entryX=0;entryY=0.5;entryDx=0;entryDy=0;entryPerimeter=0;exitX=0;exitY=0.5;exitDx=0;exitDy=0;exitPerimeter=0;curved=1;fillColor=#ffe6cc;strokeColor=#d79b00;strokeWidth=2;" edge="1" parent="1" source="gqBWp9HoKIo5OFpfZnS_-6" target="gqBWp9HoKIo5OFpfZnS_-14">
          <mxGeometry relative="1" as="geometry" />
        </mxCell>
      </root>
    </mxGraphModel>
  </diagram>
</mxfile>
